<?xml version="1.0" encoding="UTF-8" standalone="no"?>
<!-- Generator: Adobe Illustrator 15.0.2, SVG Export Plug-In . SVG Version: 6.00 Build 0)  -->

<svg
   version="1.1"
   x="0px"
   y="0px"
   width="100"
   height="100"
   viewBox="0 0 100 100"
   enable-background="new 0 0 64.8 86.4"
   xml:space="preserve"
   id="svg2"
   sodipodi:docname="fresnel_6.svg"
   inkscape:version="1.4 (86a8ad7, 2024-10-11)"
   xmlns:inkscape="http://www.inkscape.org/namespaces/inkscape"
   xmlns:sodipodi="http://sodipodi.sourceforge.net/DTD/sodipodi-0.dtd"
   xmlns="http://www.w3.org/2000/svg"
   xmlns:svg="http://www.w3.org/2000/svg"><defs
   id="defs2">
	
</defs><sodipodi:namedview
   id="namedview2"
   pagecolor="#ffffff"
   bordercolor="#000000"
   borderopacity="0.25"
   inkscape:showpageshadow="2"
   inkscape:pageopacity="0.0"
   inkscape:pagecheckerboard="0"
   inkscape:deskcolor="#d1d1d1"
   inkscape:zoom="9.9061941"
   inkscape:cx="49.968736"
   inkscape:cy="40.782565"
   inkscape:window-width="1920"
   inkscape:window-height="1010"
   inkscape:window-x="-6"
   inkscape:window-y="-6"
   inkscape:window-maximized="1"
   inkscape:current-layer="svg2" />

<g
   id="etc_symbol_outline"
   style="stroke:#000000;stroke-width:3.36362356;stroke-dasharray:none"
   transform="matrix(0.3315087,0,0,0.26661851,39.230774,-0.55133278)">
	<path
   fill="none"
   stroke="#ffffff"
   stroke-width="4"
   stroke-linecap="round"
   stroke-linejoin="round"
   d="M 58.554,19.834 C 58.519,19.289 58.484,18.744 58.45,18.2 58.37,17.012 58.289,15.826 58.208,14.639 58.2,14.507 58.19,14.376 58.181,14.245 c -0.01,-0.132 -0.02,-0.263 -0.028,-0.394 -0.009,-0.122 -0.026,-0.244 -0.054,-0.363 -0.028,-0.119 -0.063,-0.234 -0.105,-0.347 -0.044,-0.113 -0.098,-0.224 -0.158,-0.33 -0.06,-0.106 -0.129,-0.207 -0.205,-0.302 -0.076,-0.097 -0.159,-0.188 -0.248,-0.27 -0.089,-0.083 -0.184,-0.158 -0.283,-0.227 -0.099,-0.069 -0.207,-0.13 -0.316,-0.183 -0.109,-0.054 -0.223,-0.098 -0.34,-0.135 -0.119,-0.037 -0.24,-0.074 -0.359,-0.11 -0.061,-0.018 -0.121,-0.036 -0.182,-0.055 -0.06,-0.018 -0.119,-0.036 -0.18,-0.054 -0.242,-0.072 -0.482,-0.143 -0.725,-0.213 -0.175,-0.051 -0.35,-0.101 -0.525,-0.149 C 54.426,10.66 54.379,10.208 54.332,9.755 54.322,9.648 54.314,9.541 54.301,9.434 54.271,9.199 54.217,8.965 54.153,8.734 54.089,8.502 54.013,8.27 53.924,8.045 53.836,7.82 53.735,7.6 53.621,7.385 53.509,7.174 53.385,6.968 53.25,6.77 53.115,6.569 52.968,6.376 52.81,6.191 52.654,6.006 52.487,5.83 52.309,5.664 52.135,5.499 51.951,5.345 51.759,5.2 51.569,5.056 51.37,4.923 51.165,4.8 50.959,4.676 50.745,4.562 50.525,4.462 50.308,4.363 50.086,4.278 49.861,4.199 49.638,4.121 49.414,4.049 49.183,4.011 c -10e-4,0 -10e-4,0 -10e-4,0 C 49.081,3.993 48.984,3.976 48.884,3.957 47.792,3.766 46.698,3.597 45.601,3.446 45.574,3.444 45.544,3.441 45.515,3.437 45.355,3.42 45.167,3.399 44.971,3.376 44.774,3.353 44.566,3.327 44.359,3.302 36.386,2.323 28.586,2.323 20.614,3.302 20.405,3.331 20.197,3.356 20,3.379 19.803,3.401 19.617,3.423 19.456,3.44 19.427,3.444 19.399,3.447 19.371,3.449 18.274,3.599 17.18,3.768 16.089,3.96 15.987,3.981 15.886,3.999 15.785,4.018 15.766,4.021 15.747,4.025 15.727,4.029 15.497,4.071 15.273,4.143 15.052,4.222 14.828,4.302 14.608,4.389 14.394,4.489 14.185,4.587 13.98,4.698 13.782,4.818 13.582,4.939 13.388,5.071 13.203,5.212 13.014,5.355 12.832,5.508 12.661,5.67 12.488,5.83 12.327,6 12.175,6.176 12.024,6.354 11.882,6.538 11.75,6.73 c -0.135,0.195 -0.259,0.397 -0.371,0.604 -0.114,0.21 -0.215,0.425 -0.304,0.645 -0.089,0.218 -0.164,0.439 -0.229,0.664 -0.066,0.229 -0.123,0.459 -0.158,0.692 -0.021,0.141 -0.034,0.281 -0.05,0.423 -0.045,0.452 -0.091,0.905 -0.136,1.357 -0.176,0.05 -0.353,0.1 -0.528,0.15 -0.241,0.069 -0.482,0.141 -0.724,0.213 -0.06,0.018 -0.12,0.035 -0.181,0.054 -0.03,0.01 -0.06,0.019 -0.09,0.027 -0.03,0.01 -0.06,0.019 -0.09,0.027 -0.121,0.036 -0.241,0.073 -0.361,0.11 -0.12,0.037 -0.236,0.084 -0.347,0.138 -0.112,0.055 -0.219,0.117 -0.322,0.189 -0.187,0.13 -0.352,0.282 -0.496,0.459 -0.064,0.078 -0.122,0.16 -0.176,0.245 -0.106,0.169 -0.191,0.349 -0.253,0.537 -0.031,0.094 -0.056,0.191 -0.075,0.289 -0.02,0.099 -0.033,0.197 -0.04,0.298 -0.01,0.131 -0.02,0.262 -0.029,0.394 -0.01,0.131 -0.019,0.262 -0.028,0.394 -0.08,1.187 -0.16,2.373 -0.241,3.561 -0.035,0.544 -0.07,1.089 -0.105,1.634 0,15.561 0,31.12 0,46.681 -0.641,0 -1.281,0 -1.922,0 0,5.539 0,11.078 0,16.618 0.257,0 0.514,0 0.771,0 9.074,0 18.147,0 27.221,0 9.074,0 18.146,0 27.22,0 0.257,0 0.514,0 0.771,0 0,-5.54 0,-11.079 0,-16.618 -0.642,0 -1.283,0 -1.923,0 0,-15.56 0,-31.12 0,-46.681 z"
   id="path2"
   style="stroke:#000000;stroke-width:3.36362356;stroke-dasharray:none" />
</g>
</svg>
