<?xml version="1.0" encoding="UTF-8" standalone="no"?>
<!-- Generator: Adobe Illustrator 15.0.2, SVG Export Plug-In . SVG Version: 6.00 Build 0)  -->

<svg
   version="1.1"
   x="0px"
   y="0px"
   width="100"
   height="100"
   viewBox="0 0 99.999997 100"
   enable-background="new 0 0 50.4 180"
   xml:space="preserve"
   id="svg2"
   sodipodi:docname="source4_26.svg"
   inkscape:version="1.4 (86a8ad7, 2024-10-11)"
   xmlns:inkscape="http://www.inkscape.org/namespaces/inkscape"
   xmlns:sodipodi="http://sodipodi.sourceforge.net/DTD/sodipodi-0.dtd"
   xmlns="http://www.w3.org/2000/svg"
   xmlns:svg="http://www.w3.org/2000/svg"><defs
   id="defs2">
	
</defs><sodipodi:namedview
   id="namedview2"
   pagecolor="#ffffff"
   bordercolor="#000000"
   borderopacity="0.25"
   inkscape:showpageshadow="2"
   inkscape:pageopacity="0.0"
   inkscape:pagecheckerboard="0"
   inkscape:deskcolor="#d1d1d1"
   inkscape:zoom="7.9215688"
   inkscape:cx="49.990098"
   inkscape:cy="52.136138"
   inkscape:window-width="1920"
   inkscape:window-height="1010"
   inkscape:window-x="-6"
   inkscape:window-y="-6"
   inkscape:window-maximized="1"
   inkscape:current-layer="svg2" />
<path
   fill="#294663"
   d="m 55.47099,2.4880081 c 0.330987,-0.1107888 0.661973,-0.2215792 0.99296,-0.3317903 0.207594,-0.057854 0.410831,-0.087069 0.608988,-0.087069 0.328445,0 0.656891,0 0.992958,0 -0.06677,-0.4749779 -0.133192,-0.949956 -0.199607,-1.42522335 -4.601875,-0.43766243 -6.235034,-0.48192044 -7.865651,-0.48192044 -1.630254,0 -3.263049,0.0439687 -7.865285,0.48163119 -0.06678,0.4752673 -0.133195,0.9502454 -0.199608,1.4252234 0.33643,0 0.664876,0 0.99296,0 0.198155,0 0.401394,0.029215 0.609349,0.087069 0.330986,0.1105005 0.661974,0.2212901 0.992596,0.3317904 -0.03666,0.2253398 -0.07331,0.4506794 -0.109966,0.6760191 -0.137911,0.8490015 -0.271467,1.6977139 -0.400305,2.5475832 -0.0323,0.2123228 -0.06425,0.4246455 -0.09581,0.6369679 -0.008,0.053515 -0.01561,0.1061606 -0.02359,0.159676 -0.0018,0.013018 0.0026,0.026034 -0.0098,0.038472 -0.01053,0.010413 -0.02105,0.020828 -0.03158,0.031242 -0.02105,0.020539 -0.0421,0.041654 -0.06315,0.062482 -0.08419,0.083309 -0.168034,0.1666185 -0.252232,0.2499275 -0.336431,0.333526 -0.672861,0.6670518 -1.00893,1.0005778 -0.08891,0.088227 -0.185453,0.170379 -0.255861,0.2707549 -0.02686,0.038763 -0.04464,0.078392 -0.05589,0.1214924 -0.02468,0.089962 -0.02831,0.1807923 -0.03919,0.2716226 -0.01452,0.1180216 -0.02831,0.2360428 -0.04247,0.3543534 -0.05807,0.4871273 -0.113594,0.9742544 -0.163314,1.4622492 -0.08674,0.852762 -0.153517,1.706103 -0.199244,2.561177 -0.09146,1.710732 -0.10416,3.420594 -0.07876,5.132483 0.0127,0.855944 0.03339,1.711888 0.0323,2.56812 -3.65e-4,0.365636 -0.0022,0.731271 -0.0048,1.096906 -0.0026,0.424066 -0.02976,0.68672 0.181099,1.096903 0.05662,0.110214 0.128112,0.212901 0.202511,0.315592 0.425711,0.587503 0.851057,1.175296 1.276767,1.762799 0.216304,0.298524 0.329898,0.637257 0.329898,0.982065 0,2.436503 0,4.873296 0,7.310089 0,1.670234 0,3.340757 0,5.01099 0,0.259473 0,0.518947 0,0.778419 0,0.129883 0,0.259477 0,0.389356 0,0.06508 0,0.129594 0,0.194679 0,0.06798 -0.01452,0.134507 -0.02686,0.20104 -0.09618,0.516054 -0.193439,1.031818 -0.292153,1.547583 -0.197431,1.031531 -0.399943,2.062192 -0.6079,3.092274 -0.207954,1.030375 -0.421354,2.059589 -0.640197,3.088227 -0.109603,0.51432 -0.225375,1.027767 -0.31284,1.544978 -0.04573,0.271334 -0.08529,0.542958 -0.116498,0.815448 -0.01961,0.172694 -0.05988,0.568701 -0.05988,0.742261 0,0.07839 0,0.157074 0,0.235466 0.101982,0 0.204326,0 0.306308,0 2.676926,0 5.354578,0 8.031504,0 2.67729,0 5.354579,0 8.03187,0 0.101982,0 0.204326,0 0.306308,0 0,-0.07839 0,-0.157074 0,-0.235466 0,-0.173848 -0.04028,-0.569856 -0.05953,-0.742261 -0.03121,-0.27249 -0.0704,-0.544114 -0.116136,-0.815448 -0.08783,-0.516921 -0.2036,-1.030081 -0.313203,-1.544111 -0.219206,-1.028926 -0.431879,-2.058719 -0.640197,-3.088801 -0.207593,-1.030375 -0.410467,-2.061036 -0.607897,-3.092277 -0.09871,-0.515476 -0.195982,-1.03124 -0.291793,-1.547584 -0.0127,-0.06653 -0.02721,-0.132774 -0.02721,-0.20104 0,-0.0648 0,-0.129593 0,-0.194679 0,-0.129591 0,-0.259474 0,-0.389352 0,-0.259474 0,-0.519239 0,-0.778712 0,-1.670233 0,-3.340756 0,-5.01099 0,-2.436793 0,-4.873586 0,-7.310089 0,-0.344519 0.113595,-0.683251 0.329899,-0.982065 0.425709,-0.587503 0.851419,-1.175296 1.277129,-1.762799 0.07404,-0.102404 0.145896,-0.205092 0.202512,-0.315302 0.210495,-0.410183 0.184365,-0.672837 0.181461,-1.096905 -0.0026,-0.365635 -0.0044,-0.73098 -0.0051,-1.096904 -7.26e-4,-0.855654 0.01996,-1.711019 0.03267,-2.566675 0.0254,-1.712466 0.0127,-3.422329 -0.07948,-5.133638 C 58.17541,12.07753 58.108269,11.223901 58.021893,10.37056 57.972173,9.8825654 57.916645,9.3957274 57.858941,8.9086001 57.844781,8.7905789 57.830631,8.6725576 57.816481,8.5542468 57.805231,8.4637048 57.801601,8.3725867 57.777651,8.2829134 57.766041,8.2401014 57.748621,8.1998934 57.721401,8.161421 57.650991,8.0610449 57.554451,7.9788928 57.465536,7.890666 57.129105,7.55714 56.793038,7.2236141 56.456605,6.8900881 56.373135,6.8067791 56.288572,6.7234697 56.204737,6.6401607 c -0.02105,-0.020828 -0.0421,-0.041944 -0.06315,-0.062482 -0.01053,-0.010413 -0.02105,-0.020828 -0.03158,-0.031242 -0.01234,-0.012442 -0.0077,-0.025456 -0.0098,-0.038472 -0.0077,-0.053515 -0.01561,-0.1061606 -0.02322,-0.159676 -0.03195,-0.212322 -0.0639,-0.4246447 -0.09619,-0.6369675 C 55.852388,4.8614519 55.718832,4.0127394 55.580558,3.163738 55.544268,2.9383983 55.50761,2.7133479 55.470955,2.4880081 Z"
   id="path1"
   style="fill:none;stroke:#000000;stroke-width:1;stroke-dasharray:none" />

</svg>
